<?xml version="1.0" encoding="utf-8"?>
<!-- Generator: Adobe Illustrator 17.1.0, SVG Export Plug-In . SVG Version: 6.00 Build 0)  -->
<!DOCTYPE svg PUBLIC "-//W3C//DTD SVG 1.0//EN" "http://www.w3.org/TR/2001/REC-SVG-20010904/DTD/svg10.dtd" [
	<!ENTITY st0 "fill:#136BA2;">
	<!ENTITY st1 "fill:#FA930D;">
]>
<svg version="1.0" id="Layer_1" xmlns="http://www.w3.org/2000/svg" xmlns:xlink="http://www.w3.org/1999/xlink" x="0px" y="0px"
	 viewBox="0 0 422.36 297.64" style="enable-background:new 0 0 422.36 297.64;" xml:space="preserve">
<g>
	<g>
		<path style="&st0;" d="M167.178,139.654h-11.02v-3.979h26.824v3.979h-11.075v32.255h-4.729V139.654z"/>
		<path style="&st0;" d="M185.664,159.759c0.108,6.397,4.194,9.032,8.925,9.032c3.385,0,5.427-0.592,7.201-1.344l0.808,3.387
			c-1.666,0.752-4.517,1.613-8.655,1.613c-8.01,0-12.796-5.268-12.796-13.118c0-7.848,4.624-14.031,12.203-14.031
			c8.495,0,10.752,7.473,10.752,12.257c0,0.968-0.108,1.72-0.16,2.204H185.664z M199.534,156.373
			c0.055-3.01-1.236-7.688-6.558-7.688c-4.784,0-6.881,4.409-7.256,7.688H199.534z"/>
		<path style="&st0;" d="M224.366,171.909l-0.375-3.279h-0.163c-1.451,2.043-4.246,3.871-7.954,3.871
			c-5.27,0-7.957-3.71-7.957-7.473c0-6.289,5.59-9.73,15.644-9.676v-0.538c0-2.151-0.59-6.022-5.913-6.022
			c-2.42,0-4.947,0.753-6.773,1.935l-1.076-3.118c2.149-1.397,5.267-2.312,8.548-2.312c7.957,0,9.891,5.43,9.891,10.644v9.731
			c0,2.257,0.108,4.461,0.43,6.235H224.366z M223.668,158.631c-5.162-0.108-11.02,0.806-11.02,5.859
			c0,3.065,2.042,4.517,4.461,4.517c3.385,0,5.537-2.151,6.288-4.355c0.163-0.483,0.27-1.021,0.27-1.505V158.631z"/>
		<path style="&st0;" d="M235.863,152.932c0-2.687-0.052-4.892-0.215-7.042h4.141l0.215,4.194h0.16
			c1.451-2.473,3.871-4.786,8.172-4.786c3.548,0,6.235,2.151,7.364,5.215h0.108c0.806-1.451,1.829-2.58,2.903-3.387
			c1.559-1.182,3.28-1.828,5.753-1.828c3.441,0,8.548,2.258,8.548,11.29v15.321h-4.624V157.18c0-5.001-1.827-8.011-5.642-8.011
			c-2.69,0-4.787,1.989-5.593,4.301c-0.215,0.644-0.375,1.505-0.375,2.365v16.074h-4.624v-15.59c0-4.14-1.827-7.15-5.43-7.15
			c-2.955,0-5.107,2.366-5.86,4.73c-0.268,0.699-0.375,1.506-0.375,2.312v15.698h-4.624V152.932z"/>
		<path style="&st0;" d="M306.923,170.888c-1.506,0.752-4.892,1.559-9.301,1.559c-12.526,0-18.977-7.796-18.977-18.117
			c0-12.365,8.815-19.246,19.782-19.246c4.246,0,7.474,0.861,8.925,1.613l-1.666,6.506c-1.666-0.699-3.979-1.345-6.881-1.345
			c-6.506,0-11.56,3.925-11.56,11.989c0,7.256,4.301,11.827,11.613,11.827c2.472,0,5.215-0.538,6.829-1.184L306.923,170.888z"/>
		<path style="&st0;" d="M320.25,138.311c0,2.257-1.722,4.085-4.409,4.085c-2.58,0-4.301-1.828-4.246-4.085
			c-0.055-2.366,1.666-4.14,4.299-4.14C318.528,134.171,320.194,135.945,320.25,138.311z M311.81,171.909v-26.288h8.17v26.288
			H311.81z"/>
		<path style="&st0;" d="M335.673,138.095v7.525h5.86v6.022h-5.86v9.515c0,3.172,0.753,4.624,3.225,4.624
			c1.021,0,1.827-0.108,2.42-0.215l0.052,6.182c-1.073,0.43-3.01,0.699-5.322,0.699c-2.632,0-4.837-0.915-6.128-2.258
			c-1.504-1.559-2.257-4.086-2.257-7.794v-10.752h-3.496v-6.022h3.496v-5.697L335.673,138.095z"/>
		<path style="&st0;" d="M352.655,145.621l3.923,12.903c0.43,1.559,0.968,3.494,1.291,4.892h0.16
			c0.378-1.397,0.806-3.387,1.184-4.892l3.225-12.903h8.763l-6.128,17.31c-3.763,10.429-6.291,14.623-9.248,17.257
			c-2.847,2.473-5.858,3.333-7.902,3.602l-1.719-6.935c1.021-0.161,2.309-0.646,3.548-1.397c1.236-0.646,2.58-1.935,3.385-3.279
			c0.27-0.377,0.43-0.807,0.43-1.182c0-0.269-0.052-0.699-0.375-1.345l-9.624-24.03H352.655z"/>
	</g>
	<g>
		<path style="&st0;" d="M108.425,146.022c0,5.275,4.29,9.565,9.561,9.565c5.275,0,9.565-4.29,9.565-9.565
			c0-5.273-4.29-9.563-9.565-9.563C112.715,136.459,108.425,140.749,108.425,146.022z"/>
		<path style="&st1;" d="M118.419,113.883l-0.028,0.002l-0.322-0.032c-17.739,0-32.174,14.432-32.174,32.171
			c0,17.737,14.435,32.167,32.174,32.167c0.126-0.009,0.327-0.021,0.327-0.021c0.219,0.011,0.322,0.021,0.322,0.021
			c4.426,0,8.02-3.599,8.02-8.02c0-4.423-3.595-8.02-8.02-8.02c-0.103,0.009-0.294,0.03-0.294,0.03
			c-0.131-0.035-0.355-0.021-0.355-0.021c-8.897,0-16.134-7.241-16.134-16.136c0-8.898,7.236-16.136,16.134-16.136
			c0.224,0.014,0.341,0.023,0.341,0.023c0.206-0.028,0.308-0.019,0.308-0.019c4.426,0,8.02-3.597,8.02-8.02
			c0-4.421-3.595-8.02-8.02-8.02C118.616,113.862,118.419,113.883,118.419,113.883z"/>
		<path style="&st0;" d="M81.386,113.852H59.403c-2.232-0.047-4.323,0.791-5.891,2.364c-1.517,1.515-2.353,3.536-2.353,5.688
			c0,2.155,0.836,4.173,2.353,5.691c1.578,1.578,3.674,2.413,5.896,2.346c0.019-0.002,2.918,0.005,2.918,0.005
			s-0.005,47.255-0.005,48.193c0.878,0,15.252,0,16.129,0c0-0.938,0-48.193,0-48.193l2.904-0.007
			c2.241,0.07,4.337-0.766,5.915-2.343c3.137-3.137,3.137-8.242,0-11.379C85.699,114.643,83.608,113.805,81.386,113.852z"/>
	</g>
</g>
</svg>
